<svg width="31" height="28" viewBox="0 0 31 28" fill="none" xmlns="http://www.w3.org/2000/svg">
<path d="M15.9073 3.89517L15.4999 4.46714L15.0927 3.89506C13.6299 1.8402 11.2475 0.5 8.55208 0.5C4.10849 0.5 0.5 4.13006 0.5 8.61592C0.5 9.24771 0.579582 9.86287 0.717668 10.4599L0.721543 10.4767L0.724257 10.4936C1.29659 14.0735 3.57352 17.8046 6.47243 20.9256C9.31154 23.9822 12.6882 26.3902 15.5 27.4661C18.3114 26.3902 21.6883 23.9822 24.5274 20.9256C27.4263 17.8046 29.7029 14.0736 30.274 10.4938L30.2768 10.4761L30.2809 10.4586C30.4204 9.86245 30.5 9.24769 30.5 8.61592C30.5 4.13003 26.8915 0.5 22.4488 0.5C19.7525 0.5 17.3709 1.84017 15.9073 3.89517Z" fill="#50545D" stroke="#50545D"/>
</svg>
