<svg width="45" height="50" viewBox="0 0 45 50" fill="none" xmlns="http://www.w3.org/2000/svg">
<path d="M36.4 32.536C33.712 32.536 31.304 33.824 29.792 35.784L16.184 27.888C17.024 25.816 17.024 23.52 16.184 21.448L29.792 13.552C31.304 15.512 33.712 16.8 36.4 16.8C41.048 16.8 44.8 13.048 44.8 8.4C44.8 3.752 41.048 0 36.4 0C31.752 0 28 3.752 28 8.4C28 9.52 28.224 10.64 28.616 11.592L15.008 19.544C13.44 17.584 11.088 16.296 8.4 16.296C3.752 16.296 0 20.048 0 24.696C0 29.344 3.752 33.096 8.4 33.096C11.088 33.096 13.496 31.808 15.008 29.848L28.616 37.744C28.224 38.696 28 39.816 28 40.936C28 45.584 31.752 49.336 36.4 49.336C41.048 49.336 44.8 45.584 44.8 40.936C44.8 36.288 41.048 32.536 36.4 32.536ZM36.4 2.296C39.816 2.296 42.56 5.04 42.56 8.456C42.56 11.872 39.816 14.616 36.4 14.616C32.984 14.616 30.24 11.872 30.24 8.456C30.24 5.04 32.984 2.296 36.4 2.296ZM8.4 30.856C4.984 30.856 2.24 28.112 2.24 24.696C2.24 21.28 4.984 18.536 8.4 18.536C11.816 18.536 14.56 21.28 14.56 24.696C14.56 28.112 11.816 30.856 8.4 30.856ZM36.4 47.096C32.984 47.096 30.24 44.352 30.24 40.936C30.24 37.52 32.984 34.776 36.4 34.776C39.816 34.776 42.56 37.52 42.56 40.936C42.56 44.352 39.816 47.096 36.4 47.096Z" fill="#50545D"/>
</svg>
