<svg width="47" height="50" viewBox="0 0 47 50" fill="none" xmlns="http://www.w3.org/2000/svg">
<path d="M1.56667 38C1.15116 38 0.752673 38.1555 0.458866 38.4322C0.165059 38.7089 0 39.0842 0 39.4755V48.5245C0 48.9158 0.165059 49.2911 0.458866 49.5678C0.752673 49.8445 1.15116 50 1.56667 50H45.4333C45.8488 50 46.2473 49.8445 46.5411 49.5678C46.8349 49.2911 47 48.9158 47 48.5245V39.4755C47 39.0842 46.8349 38.7089 46.5411 38.4322C46.2473 38.1555 45.8488 38 45.4333 38C45.0178 38 44.6193 38.1555 44.3255 38.4322C44.0317 38.7089 43.8667 39.0842 43.8667 39.4755V47.0491H3.13333V39.4755C3.13333 39.0842 2.96827 38.7089 2.67447 38.4322C2.38066 38.1555 1.98217 38 1.56667 38Z" fill="#50545D"/>
<path d="M23.5018 0C23.0763 0 22.6681 0.167013 22.3672 0.464297C22.0662 0.761582 21.8972 1.16479 21.8972 1.58521V35.6831L11.7186 25.9705C11.5671 25.8259 11.3882 25.7122 11.1922 25.6359C10.9962 25.5597 10.7869 25.5222 10.5763 25.5258C10.3657 25.5295 10.1579 25.574 9.96466 25.657C9.77147 25.7399 9.5967 25.8597 9.45035 26.0093C9.304 26.159 9.18892 26.3357 9.11169 26.5293C9.03446 26.7229 8.99659 26.9297 9.00024 27.1377C9.00389 27.3458 9.04899 27.5511 9.13297 27.742C9.21694 27.9328 9.33815 28.1054 9.48967 28.25L22.3641 40.537L22.3673 40.5402L22.3866 40.5576C22.446 40.6147 22.5214 40.6384 22.5856 40.6844C22.6851 40.7557 22.7781 40.835 22.8937 40.881C23.2821 41.0397 23.7184 41.0397 24.1068 40.881C24.2143 40.8382 24.2994 40.7637 24.3925 40.6987C24.4663 40.6495 24.5497 40.6194 24.6155 40.556L37.5108 28.2469C37.6623 28.1021 37.7835 27.9292 37.8674 27.7382C37.9513 27.5471 37.9963 27.3416 37.9998 27.1334C38.0033 26.9252 37.9652 26.7184 37.8878 26.5247C37.8104 26.331 37.6951 26.1543 37.5485 26.0046C37.402 25.8549 37.227 25.7352 37.0336 25.6523C36.8402 25.5695 36.6322 25.525 36.4214 25.5216C36.2106 25.5181 36.0013 25.5557 35.8052 25.6322C35.6091 25.7087 35.4302 25.8225 35.2787 25.9673L25.1065 35.6831V1.58521C25.1065 1.16479 24.9375 0.761582 24.6365 0.464297C24.3356 0.167013 23.9274 0 23.5018 0Z" fill="#50545D"/>
</svg>
