<svg width="27" height="27" viewBox="0 0 27 27" fill="none" xmlns="http://www.w3.org/2000/svg">
<path d="M22.95 0C25.1867 0 27 1.81324 27 4.05V22.95C27 25.1867 25.1867 27 22.95 27H4.05C1.81324 27 0 25.1867 0 22.95V4.05C0 1.81324 1.81324 0 4.05 0H22.95ZM22.95 2.7H4.05C3.30442 2.7 2.7 3.30442 2.7 4.05V22.95C2.7 23.6955 3.30442 24.3 4.05 24.3H22.95C23.6955 24.3 24.3 23.6955 24.3 22.95V4.05C24.3 3.30442 23.6955 2.7 22.95 2.7Z" fill="#50545D"/>
<rect x="6.23077" y="6.23077" width="14.5385" height="14.5385" fill="#C2E812"/>
<rect x="6.23077" y="6.23077" width="14.5385" height="14.5385" fill="#C2E812"/>
</svg>
