<svg width="70" height="90" viewBox="0 0 70 90" fill="none" xmlns="http://www.w3.org/2000/svg">
<path d="M35 40C38.9556 40 42.8224 38.827 46.1114 36.6294C49.4004 34.4318 51.9638 31.3082 53.4776 27.6537C54.9913 23.9992 55.3874 19.9778 54.6157 16.0982C53.844 12.2186 51.9392 8.65492 49.1421 5.85787C46.3451 3.06082 42.7814 1.15601 38.9018 0.384303C35.0222 -0.387401 31.0009 0.00866562 27.3463 1.52242C23.6918 3.03617 20.5682 5.59962 18.3706 8.8886C16.173 12.1776 15 16.0444 15 20C15 25.3043 17.1071 30.3914 20.8579 34.1421C24.6086 37.8929 29.6957 40 35 40ZM65 90C66.3261 90 67.5979 89.4732 68.5355 88.5355C69.4732 87.5979 70 86.3261 70 85C70 75.7174 66.3125 66.815 59.7487 60.2513C53.185 53.6875 44.2826 50 35 50C25.7174 50 16.815 53.6875 10.2513 60.2513C3.68749 66.815 1.38321e-07 75.7174 0 85C0 86.3261 0.526785 87.5979 1.46447 88.5355C2.40215 89.4732 3.67392 90 5 90H65Z" fill="#A4C3C9"/>
</svg>
