<svg width="41" height="41" viewBox="0 0 41 41" fill="none" xmlns="http://www.w3.org/2000/svg">
<path d="M0.5 20.5C0.5 9.47409 9.47409 0.5 20.5 0.5C31.5259 0.5 40.5 9.47409 40.5 20.5C40.5 31.5259 31.5259 40.5 20.5 40.5C9.47409 40.5 0.5 31.5259 0.5 20.5ZM2.38563 20.5C2.38563 30.5163 10.5461 38.6144 20.5 38.6144C30.4539 38.6144 38.6144 30.5163 38.6144 20.5C38.6144 10.4837 30.4539 2.38563 20.5 2.38563C10.4849 2.38563 2.38563 10.4849 2.38563 20.5Z" fill="#50545D" stroke="white"/>
<path d="M21.4427 18.8769V19.3769H21.9427H29.9383C30.4437 19.3769 30.8811 19.8143 30.8811 20.3197C30.8811 20.8251 30.4437 21.2625 29.9383 21.2625H21.9427H21.4427V21.7625V29.7581C21.4427 30.2635 21.0053 30.7009 20.4999 30.7009C19.9945 30.7009 19.5571 30.2635 19.5571 29.7581V21.7625V21.2625H19.0571H11.0615C10.5561 21.2625 10.1187 20.8251 10.1187 20.3197C10.1187 19.8143 10.5561 19.3769 11.0615 19.3769H19.0571H19.5571V18.8769V10.8813C19.5571 10.3759 19.9945 9.93848 20.4999 9.93848C21.0053 9.93848 21.4427 10.3759 21.4427 10.8813V18.8769Z" fill="#50545D" stroke="white"/>
</svg>
