<svg width="51" height="50" viewBox="0 0 51 50" fill="none" xmlns="http://www.w3.org/2000/svg">
<path d="M49.0385 23.0769H27.4615V1.92308C27.4615 1.41305 27.2549 0.923903 26.887 0.563256C26.5192 0.202609 26.0202 0 25.5 0C24.9798 0 24.4808 0.202609 24.113 0.563256C23.7451 0.923903 23.5385 1.41305 23.5385 1.92308V23.0769H1.96154C1.44131 23.0769 0.942381 23.2795 0.574521 23.6402C0.206661 24.0008 0 24.49 0 25C0 25.51 0.206661 25.9992 0.574521 26.3598C0.942381 26.7205 1.44131 26.9231 1.96154 26.9231H23.5385V48.0769C23.5385 48.587 23.7451 49.0761 24.113 49.4367C24.4808 49.7974 24.9798 50 25.5 50C26.0202 50 26.5192 49.7974 26.887 49.4367C27.2549 49.0761 27.4615 48.587 27.4615 48.0769V26.9231H49.0385C49.5587 26.9231 50.0576 26.7205 50.4255 26.3598C50.7933 25.9992 51 25.51 51 25C51 24.49 50.7933 24.0008 50.4255 23.6402C50.0576 23.2795 49.5587 23.0769 49.0385 23.0769Z" fill="#50545D"/>
</svg>
