<svg width="53" height="67" viewBox="0 0 53 67" fill="none" xmlns="http://www.w3.org/2000/svg">
<path d="M26.5 29.7917C29.4337 29.7917 32.3016 28.9217 34.7409 27.2918C37.1803 25.6619 39.0815 23.3452 40.2042 20.6348C41.3269 17.9244 41.6206 14.9419 41.0483 12.0645C40.4759 9.18711 39.0632 6.54407 36.9887 4.46959C34.9142 2.39511 32.2712 0.982372 29.3938 0.410025C26.5164 -0.162322 23.5339 0.131427 20.8235 1.25413C18.1131 2.37683 15.7964 4.27805 14.1665 6.71738C12.5366 9.15671 11.6666 12.0246 11.6666 14.9583C11.6666 18.8924 13.2294 22.6653 16.0112 25.4471C18.793 28.2289 22.5659 29.7917 26.5 29.7917ZM48.75 66.875C49.7335 66.875 50.6767 66.4843 51.3722 65.7889C52.0676 65.0934 52.4583 64.1502 52.4583 63.1667C52.4583 56.2821 49.7234 49.6795 44.8553 44.8114C39.9871 39.9432 33.3845 37.2083 26.5 37.2083C19.6154 37.2083 13.0128 39.9432 8.14465 44.8114C3.27651 49.6795 0.541626 56.2821 0.541626 63.1667C0.541626 64.1502 0.932325 65.0934 1.62777 65.7889C2.32322 66.4843 3.26645 66.875 4.24996 66.875H48.75Z" fill="#50545D"/>
</svg>
