<svg width="47" height="59" viewBox="0 0 47 59" fill="none" xmlns="http://www.w3.org/2000/svg">
<path d="M9.40797 58.7998H37.1615C40.3367 58.7998 42.8063 56.2126 42.8063 53.155V14.9352H45.2758C45.9814 14.9352 46.4518 14.4648 46.4518 13.7592V11.0544C46.4518 8.58477 44.4526 6.70318 42.1007 6.70318H32.1047V3.64559C32.1047 1.64639 30.4583 0 28.4591 0H17.9927C15.9935 0 14.3471 1.64639 14.3471 3.64559V6.70318H4.35118C1.88159 6.70318 0 8.70237 0 11.0544V13.7592C0 14.4648 0.470398 14.9352 1.176 14.9352H3.64559V53.155C3.64559 56.2126 6.23278 58.7998 9.40797 58.7998ZM40.4543 53.155C40.4543 55.0366 38.9255 56.4478 37.1615 56.4478H9.40797C7.52637 56.4478 6.11518 54.919 6.11518 53.155V14.9352H40.5719V53.155H40.4543ZM16.6991 3.64559C16.6991 2.93999 17.2871 2.35199 17.9927 2.35199H28.4591C29.1647 2.35199 29.7527 2.93999 29.7527 3.64559V6.70318H16.8167V3.64559H16.6991ZM2.35199 11.0544C2.35199 9.87837 3.29279 9.05517 4.35118 9.05517H41.9831C43.159 9.05517 43.9822 9.99597 43.9822 11.0544V12.5832H2.35199V11.0544Z" fill="#50545D"/>
<path d="M32.4575 50.8031C33.1631 50.8031 33.6335 50.3327 33.6335 49.6271V21.6384C33.6335 20.9328 33.1631 20.4624 32.4575 20.4624C31.7519 20.4624 31.2815 20.9328 31.2815 21.6384V49.6271C31.2815 50.3327 31.8695 50.8031 32.4575 50.8031ZM23.2847 50.8031C23.9903 50.8031 24.4607 50.3327 24.4607 49.6271V21.6384C24.4607 20.9328 23.9903 20.4624 23.2847 20.4624C22.5791 20.4624 22.1087 20.9328 22.1087 21.6384V49.6271C22.1087 50.3327 22.5791 50.8031 23.2847 50.8031ZM13.9944 50.8031C14.7 50.8031 15.1704 50.3327 15.1704 49.6271V21.6384C15.1704 20.9328 14.7 20.4624 13.9944 20.4624C13.2888 20.4624 12.8184 20.9328 12.8184 21.6384V49.6271C12.8184 50.3327 13.2888 50.8031 13.9944 50.8031Z" fill="#50545D"/>
</svg>
