<svg width="55" height="53" viewBox="0 0 55 53" fill="none" xmlns="http://www.w3.org/2000/svg">
<path d="M53.6757 15.3132L52.4007 14.043L40.9059 2.58904L39.6291 1.31698C38.7824 0.473718 37.6343 0 36.4371 0C35.2399 0 34.0917 0.473718 33.2451 1.31698L6.42682 28.0284C6.42682 28.0284 6.41599 28.0464 6.40877 28.0554L1.3142 33.1292C0.472293 33.9762 0 35.1201 0 36.3121C0 37.5041 0.472293 38.648 1.3142 39.4949L14.624 52.7373C14.6366 52.7499 14.6529 52.7535 14.6655 52.7643C14.7393 52.8331 14.8242 52.889 14.9166 52.9298C15.0258 52.9755 15.143 52.9994 15.2615 53H35.6271C35.8666 53 36.0963 52.9052 36.2656 52.7365C36.4349 52.5678 36.5301 52.339 36.5301 52.1004C36.5301 51.8618 36.4349 51.633 36.2656 51.4643C36.0963 51.2955 35.8666 51.2008 35.6271 51.2008H24.0257L26.8213 48.4173C26.8322 48.4066 26.8466 48.403 26.8575 48.3922L48.955 26.3767L53.6721 21.6789C53.7389 21.6123 53.7859 21.5332 53.8527 21.463C53.9969 21.3099 54.1303 21.147 54.2518 20.9754L54.2662 20.9502C54.8322 20.0861 55.0828 19.0544 54.9759 18.0281C54.869 17.0017 54.4113 16.0432 53.6793 15.3132H53.6757ZM40.263 4.50163L50.4792 14.6799L22.3895 42.6652L12.1733 32.4869L40.263 4.50163ZM34.5201 2.59803C35.0359 2.10697 35.7218 1.83293 36.4353 1.83293C37.1487 1.83293 37.8347 2.10697 38.3505 2.59803L38.9844 3.22957L10.8965 31.2149L8.34654 28.6743L34.5201 2.59803ZM21.4703 51.199H15.6462L2.60364 38.2247C2.09799 37.716 1.81433 37.0289 1.81433 36.313C1.81433 35.597 2.09799 34.91 2.60364 34.4013L7.07335 29.9482L10.259 33.1221L21.7502 44.5814L24.9359 47.748L21.4703 51.199ZM52.4025 20.3979L47.6727 25.1101L26.2145 46.476L23.6664 43.9373L51.7578 15.952L52.3971 16.5889C52.9034 17.094 53.1883 17.7784 53.1893 18.4923C53.1903 19.2061 52.9074 19.8913 52.4025 20.3979Z" fill="#50545D"/>
</svg>
