<svg width="73" height="79" viewBox="0 0 73 79" fill="none" xmlns="http://www.w3.org/2000/svg">
<path d="M19.8127 33.5102C19.3682 33.5102 19.0104 33.8678 19.0104 34.3128V38.8065C17.1378 39.2414 15.3488 39.9792 13.7141 40.9909L10.5425 37.8192C10.2283 37.5047 9.72233 37.5047 9.40805 37.8192L4.867 42.3602C4.5527 42.6744 4.5527 43.1802 4.867 43.4948L8.0448 46.6726C7.03043 48.3048 6.28943 50.0917 5.85105 51.9628H1.36014C0.915691 51.9628 0.557861 52.3203 0.557861 52.7651V59.1831C0.557861 59.6276 0.915691 59.9854 1.36014 59.9854H5.85419C6.28901 61.858 7.02684 63.6473 8.03853 65.2821L4.867 68.4534C4.5527 68.7677 4.5527 69.2734 4.867 69.5877L9.40805 74.1286C9.72233 74.4432 10.2283 74.4432 10.5425 74.1286L13.7203 70.9508C15.3525 71.9653 17.1393 72.7066 19.0104 73.1451V77.6357C19.0104 78.0805 19.3682 78.438 19.8127 78.438H26.2309C26.6754 78.438 27.0332 78.0805 27.0332 77.6357V73.1417C28.9058 72.7068 30.6948 71.969 32.3295 70.9573L35.5011 74.1286C35.8154 74.4432 36.3213 74.4432 36.6356 74.1286L41.1766 69.5877C41.4909 69.2734 41.4909 68.7677 41.1766 68.4534L37.9988 65.2759C39.0132 63.6437 39.7542 61.8565 40.1925 59.9854H44.6835C45.1279 59.9854 45.4857 59.6276 45.4857 59.1831V52.7651C45.4857 52.3203 45.1279 51.9628 44.6835 51.9628H40.1894C39.7546 50.0901 39.0168 48.3009 38.0051 46.6661L41.1766 43.4948C41.4909 43.1802 41.4909 42.6744 41.1766 42.3602L36.6356 37.8192C36.3213 37.5047 35.8154 37.5047 35.5011 37.8192L32.3233 40.997C30.6911 39.9827 28.9042 39.2416 27.0332 38.8031V34.3128C27.0332 33.8678 26.6754 33.5102 26.2309 33.5102H19.8127ZM23.0218 44.7422C24.4968 44.7422 25.9574 45.0326 27.3201 45.597C28.6828 46.1615 29.9211 46.989 30.964 48.032C32.007 49.075 32.8344 50.3132 33.3988 51.6759C33.9633 53.0387 34.2538 54.4991 34.2538 55.9741C34.2537 58.953 33.0703 61.8098 30.9639 63.9162C28.8575 66.0226 26.0007 67.206 23.0218 67.206C20.0429 67.206 17.1861 66.0226 15.0797 63.9162C12.9733 61.8098 11.7899 58.953 11.7898 55.9741C11.7898 54.4991 12.0803 53.0387 12.6448 51.6759C13.2092 50.3132 14.0366 49.075 15.0796 48.032C16.1225 46.989 17.3608 46.1615 18.7235 45.597C20.0862 45.0326 21.5468 44.7422 23.0218 44.7422ZM52.5111 29.2796C52.2392 29.3519 52.0792 29.6307 52.1519 29.9019L52.8885 32.6509C51.8142 33.2239 50.8407 33.9685 50.0065 34.8553L47.5464 33.4352C47.3022 33.2906 46.9927 33.3768 46.8524 33.6216L44.8188 37.144C44.6777 37.3859 44.7609 37.6972 45.0048 37.8383L47.4697 39.2611C47.1167 40.4259 46.9563 41.6404 46.9948 42.8569L44.2475 43.5933C43.9756 43.6656 43.8156 43.9443 43.8881 44.2152L44.9402 48.142C45.0131 48.4146 45.2906 48.5737 45.5625 48.5008L48.3118 47.7641C48.8847 48.8384 49.6293 49.812 50.5162 50.6462L49.0959 53.1063C48.9548 53.3482 49.0381 53.6595 49.2819 53.8002L52.8042 55.8339C53.0476 55.9757 53.3571 55.8895 53.4982 55.6475L54.9214 53.1827C56.0862 53.5357 57.3008 53.6961 58.5172 53.6576L59.2533 56.4046C59.3262 56.6772 59.6037 56.8371 59.8756 56.7645L63.802 55.712C64.0739 55.6397 64.2339 55.3606 64.1613 55.0897L63.4247 52.3407C64.499 51.7676 65.4725 51.0229 66.3066 50.1359L68.7667 51.5561C69.0101 51.6979 69.3196 51.6144 69.4607 51.3697L71.4944 47.8476C71.6355 47.6057 71.5522 47.2943 71.3084 47.1533L68.8435 45.7301C69.1964 44.5654 69.3569 43.3511 69.3184 42.1347L72.0657 41.3983C72.3376 41.326 72.4976 41.047 72.425 40.7764L71.3729 36.8496C71.3 36.577 71.0225 36.4175 70.7506 36.4904L68.0014 37.2271C67.4284 36.1529 66.6838 35.1792 65.7969 34.3451L67.2173 31.885C67.3576 31.6402 67.275 31.3318 67.0313 31.191L63.5089 29.1577C63.2647 29.0131 62.9552 29.0966 62.8149 29.3441L61.3917 31.8089C60.227 31.4559 59.0124 31.2955 57.7959 31.334L57.0599 28.5867C56.987 28.3141 56.7094 28.1546 56.4375 28.2275L52.5111 29.2796ZM56.3154 35.6247C58.1378 35.1364 60.0794 35.392 61.7133 36.3353C63.3472 37.2785 64.5394 38.8322 65.0277 40.6545C65.2696 41.5568 65.3313 42.498 65.2094 43.4242C65.0874 44.3504 64.7843 45.2436 64.3172 46.0527C63.8501 46.8617 63.2282 47.5706 62.4871 48.1393C61.746 48.708 60.9001 49.1252 59.9977 49.3669C59.0953 49.6087 58.1542 49.6705 57.228 49.5486C56.3018 49.4266 55.4088 49.1234 54.5997 48.6563C53.7907 48.1892 53.0816 47.5675 52.513 46.8264C51.9443 46.0853 51.5271 45.2391 51.2854 44.3368C50.7971 42.5144 51.0527 40.5728 51.996 38.9389C52.9394 37.3051 54.4931 36.113 56.3154 35.6247ZM35.6444 0.562988C35.3185 0.562988 35.0561 0.827232 35.0561 1.15153V4.4473C33.6828 4.76613 32.3709 5.30724 31.1721 6.0491L28.8463 3.72313C28.6158 3.49229 28.2448 3.49229 28.0143 3.72313L24.6842 7.05336C24.4538 7.28421 24.4538 7.65425 24.6842 7.88482L27.0146 10.2152C26.2708 11.4121 25.7274 12.7227 25.4059 14.0948H22.1125C21.7866 14.0948 21.5242 14.3561 21.5242 14.6831V19.3897C21.5242 19.7157 21.7866 19.9784 22.1125 19.9784H25.4082C25.727 21.3517 26.2681 22.6636 27.01 23.8624L24.6842 26.188C24.4538 26.4189 24.4538 26.7895 24.6842 27.0198L28.0143 30.3501C28.2448 30.5809 28.6158 30.5809 28.8463 30.3501L31.1767 28.0197C32.3736 28.7637 33.6839 29.307 35.0561 29.6286V32.9215C35.0561 33.2477 35.3185 33.5102 35.6444 33.5102H40.3511C40.6771 33.5102 40.9395 33.2461 40.9395 32.9215V29.6259C42.3127 29.3071 43.6246 28.766 44.8234 28.0241L47.1492 30.3501C47.3797 30.5809 47.7507 30.5809 47.9812 30.3501L51.3113 27.0198C51.5418 26.789 51.5418 26.4186 51.3113 26.188L48.9809 23.858C49.7248 22.661 50.2682 21.3506 50.5896 19.9784H53.883C54.2089 19.9784 54.4713 19.714 54.4713 19.3897V14.6831C54.4713 14.3574 54.2089 14.0948 53.883 14.0948H50.5873C50.2685 12.7216 49.7274 11.4095 48.9855 10.2108L51.3113 7.88482C51.5418 7.65398 51.5418 7.28365 51.3113 7.05336L47.9812 3.72313C47.7507 3.49229 47.3797 3.49229 47.1492 3.72313L44.8188 6.05351C43.6219 5.30958 42.3116 4.76614 40.9395 4.44458V1.15153C40.9395 0.825285 40.6771 0.562988 40.3511 0.562988H35.6444ZM37.9978 8.79979C39.0794 8.79979 40.1505 9.01292 41.1499 9.42686C42.1492 9.84081 43.0572 10.4475 43.8221 11.2123C44.587 11.9772 45.1937 12.8853 45.6076 13.8846C46.0215 14.884 46.2346 15.9549 46.2345 17.0366C46.2345 19.2211 45.3667 21.3162 43.822 22.8609C42.2773 24.4055 40.1823 25.2734 37.9978 25.2734C35.8133 25.2734 33.7182 24.4055 32.1735 22.8609C30.6288 21.3162 29.761 19.2211 29.761 17.0366C29.761 15.9549 29.974 14.884 30.3879 13.8846C30.8018 12.8853 31.4086 11.9772 32.1734 11.2123C32.9383 10.4475 33.8463 9.84081 34.8456 9.42686C35.845 9.01292 36.9161 8.79979 37.9978 8.79979Z" fill="#50545D"/>
</svg>
